# xmcd
#
# Track frame offsets:
#	150
#	15095
#	34382
#	59010
#	77135
#	96685
#	108542
#	121250
#	137667
#	158305
#	178215
#	199502
#	216850
#	234097
#	246227
#
# Disc length: 3558 seconds
#
# Revision: 0
# Processed by: cddbd v1.5.1PL2 Copyright (c) Steve Scherf et al.
# Submitted via: audiograbber 1.83.01
#
DISCID=c80de40f
DTITLE=DIAFOROI - ZONTANI IHOGRAFISI STIN IERA ODO
DYEAR=1998
DGENRE=GREEK
TTITLE0=DALARAS, TSALIGOPOULOU, ZERVAS - Luna Rossa
TTITLE1=DALARAS - Sou aksize mia kaliteri agalia
TTITLE2=DALARAS, FRAGOULIS - Pote ksana
TTITLE3=DALARAS, FRAGOULIS - Notos
TTITLE4=DALARAS, FRAGOULIS - Omorfi poli
TTITLE5=DALARAS, FRAGOULIS - Canzone Arrabbiata
TTITLE6=DALARAS, FRAGOULIS - Granada
TTITLE7=DALARAS, FRAGOULIS - Caruso
TTITLE8=DALARAS - I Ellada taksidevi
TTITLE9=DALARAS, THIVAIOS, SYNITHEIS YPOPTOI - Mikri patrida
TTITLE10=DALARAS, YPOGEIA REVMATA - Asimenia sfika
TTITLE11=DALARAS, FAMELLOS, PODILATES - Vasiliki
TTITLE12=DALARAS - Ta smirneika tragoudia
TTITLE13=DALARAS - Karavia sti steria
TTITLE14=DALARAS - Ki an se thelo
EXTD=
EXTT0=
EXTT1=
EXTT2=
EXTT3=
EXTT4=
EXTT5=
EXTT6=
EXTT7=
EXTT8=
EXTT9=
EXTT10=
EXTT11=
EXTT12=
EXTT13=
EXTT14=
PLAYORDER=
